<svg width="238" height="65" viewBox="0 0 238 65" fill="none" xmlns="http://www.w3.org/2000/svg">
<path d="M16.68 7.81C16.98 7.27 17.41 7 17.97 7H23.46C23.68 7 23.87 7.08 24.03 7.24C24.19 7.4 24.27 7.59 24.27 7.81V27.19C24.27 27.41 24.19 27.6 24.03 27.76C23.87 27.92 23.68 28 23.46 28H18.03C17.81 28 17.62 27.92 17.46 27.76C17.3 27.6 17.22 27.41 17.22 27.19V17.89L15.03 22.21C14.97 22.35 14.83 22.51 14.61 22.69C14.39 22.87 14.11 22.96 13.77 22.96H11.73C11.39 22.96 11.11 22.87 10.89 22.69C10.67 22.51 10.53 22.35 10.47 22.21L8.28 17.89V27.19C8.28 27.41 8.2 27.6 8.04 27.76C7.88 27.92 7.69 28 7.47 28H2.04C1.82 28 1.63 27.92 1.47 27.76C1.31 27.6 1.23 27.41 1.23 27.19V7.81C1.23 7.59 1.31 7.4 1.47 7.24C1.63 7.08 1.82 7 2.04 7H7.53C8.09 7 8.52 7.27 8.82 7.81L12.75 15.01L16.68 7.81ZM50.2983 19.33C50.2983 22.39 49.2783 24.65 47.2383 26.11C45.2183 27.57 42.5183 28.3 39.1383 28.3C35.7583 28.3 33.0483 27.57 31.0083 26.11C28.9883 24.65 27.9783 22.37 27.9783 19.27V15.73C27.9783 13.69 28.4583 12 29.4183 10.66C30.3983 9.3 31.7283 8.3 33.4083 7.66C35.0883 7.02 36.9983 6.7 39.1383 6.7C41.2783 6.7 43.1783 7.02 44.8383 7.66C46.5183 8.3 47.8483 9.29 48.8283 10.63C49.8083 11.97 50.2983 13.65 50.2983 15.67V19.33ZM36.0783 19.9C36.0783 20.72 36.3483 21.35 36.8883 21.79C37.4483 22.23 38.1983 22.45 39.1383 22.45C40.0783 22.45 40.8183 22.23 41.3583 21.79C41.9183 21.33 42.1983 20.69 42.1983 19.87V15.13C42.1983 14.31 41.9183 13.68 41.3583 13.24C40.8183 12.78 40.0783 12.55 39.1383 12.55C38.1983 12.55 37.4483 12.77 36.8883 13.21C36.3483 13.65 36.0783 14.28 36.0783 15.1V19.9ZM74.9166 7C75.1366 7 75.3266 7.08 75.4866 7.24C75.6466 7.4 75.7266 7.59 75.7266 7.81V27.19C75.7266 27.41 75.6466 27.6 75.4866 27.76C75.3266 27.92 75.1366 28 74.9166 28H70.0866C69.6066 28 69.2066 27.79 68.8866 27.37L62.3466 19.03V27.19C62.3466 27.41 62.2666 27.6 62.1066 27.76C61.9466 27.92 61.7566 28 61.5366 28H55.9566C55.7366 28 55.5466 27.92 55.3866 27.76C55.2266 27.6 55.1466 27.41 55.1466 27.19V7.81C55.1466 7.59 55.2266 7.4 55.3866 7.24C55.5466 7.08 55.7366 7 55.9566 7H60.8166C61.2966 7 61.6866 7.2 61.9866 7.6L68.5266 16.63V7.81C68.5266 7.59 68.6066 7.4 68.7666 7.24C68.9266 7.08 69.1166 7 69.3366 7H74.9166ZM93.5648 14.62C95.7648 14.86 97.5248 15.25 98.8448 15.79C100.185 16.33 101.155 17.04 101.755 17.92C102.355 18.8 102.655 19.9 102.655 21.22C102.655 22.66 102.185 23.92 101.245 25C100.325 26.06 99.0448 26.88 97.4048 27.46C95.7648 28.02 93.8948 28.3 91.7948 28.3C89.4548 28.3 87.4748 28.01 85.8548 27.43C84.2348 26.85 83.0248 26.08 82.2248 25.12C81.4248 24.14 81.0248 23.07 81.0248 21.91C81.0248 21.71 81.0848 21.55 81.2048 21.43C81.3448 21.31 81.5148 21.25 81.7148 21.25H87.8648C88.2848 21.25 88.6248 21.38 88.8848 21.64C89.2248 21.96 89.6048 22.18 90.0248 22.3C90.4448 22.4 91.0348 22.45 91.7948 22.45C93.6948 22.45 94.6448 22.16 94.6448 21.58C94.6448 21.34 94.5148 21.14 94.2548 20.98C94.0148 20.8 93.5748 20.65 92.9348 20.53C92.3148 20.39 91.3948 20.25 90.1748 20.11C87.4348 19.79 85.3348 19.11 83.8748 18.07C82.4148 17.01 81.6848 15.52 81.6848 13.6C81.6848 12.24 82.0948 11.04 82.9148 10C83.7348 8.96 84.8948 8.15 86.3948 7.57C87.9148 6.99 89.6748 6.7 91.6748 6.7C93.7548 6.7 95.5748 7.03 97.1348 7.69C98.6948 8.33 99.8848 9.13 100.705 10.09C101.525 11.05 101.935 11.99 101.935 12.91C101.935 13.11 101.865 13.27 101.725 13.39C101.605 13.51 101.435 13.57 101.215 13.57H94.7648C94.4248 13.57 94.1148 13.45 93.8348 13.21C93.6148 13.01 93.3548 12.85 93.0548 12.73C92.7548 12.61 92.2948 12.55 91.6748 12.55C90.3348 12.55 89.6648 12.83 89.6648 13.39C89.6648 13.69 89.9248 13.93 90.4448 14.11C90.9648 14.27 92.0048 14.44 93.5648 14.62ZM128.653 7C128.873 7 129.063 7.08 129.223 7.24C129.383 7.4 129.463 7.59 129.463 7.81V12.64C129.463 12.86 129.383 13.05 129.223 13.21C129.063 13.37 128.873 13.45 128.653 13.45H122.203V27.19C122.203 27.41 122.123 27.6 121.963 27.76C121.803 27.92 121.613 28 121.393 28H115.213C114.993 28 114.803 27.92 114.643 27.76C114.483 27.6 114.403 27.41 114.403 27.19V13.45H107.953C107.733 13.45 107.543 13.37 107.383 13.21C107.223 13.05 107.143 12.86 107.143 12.64V7.81C107.143 7.59 107.223 7.4 107.383 7.24C107.543 7.08 107.733 7 107.953 7H128.653ZM154.411 22.15C154.631 22.15 154.821 22.23 154.981 22.39C155.141 22.55 155.221 22.74 155.221 22.96V27.19C155.221 27.41 155.141 27.6 154.981 27.76C154.821 27.92 154.631 28 154.411 28H135.451C135.231 28 135.041 27.92 134.881 27.76C134.721 27.6 134.641 27.41 134.641 27.19V7.81C134.641 7.59 134.721 7.4 134.881 7.24C135.041 7.08 135.231 7 135.451 7H154.111C154.331 7 154.521 7.08 154.681 7.24C154.841 7.4 154.921 7.59 154.921 7.81V12.04C154.921 12.26 154.841 12.45 154.681 12.61C154.521 12.77 154.331 12.85 154.111 12.85H142.441V14.74H152.461C152.681 14.74 152.871 14.82 153.031 14.98C153.191 15.14 153.271 15.33 153.271 15.55V19.45C153.271 19.67 153.191 19.86 153.031 20.02C152.871 20.18 152.681 20.26 152.461 20.26H142.441V22.15H154.411ZM182.99 27.07C183.03 27.15 183.05 27.24 183.05 27.34C183.05 27.52 182.98 27.68 182.84 27.82C182.72 27.94 182.57 28 182.39 28H175.58C175.3 28 175.04 27.93 174.8 27.79C174.58 27.65 174.42 27.47 174.32 27.25L171.68 21.31H169.16V27.19C169.16 27.41 169.08 27.6 168.92 27.76C168.76 27.92 168.57 28 168.35 28H161.87C161.65 28 161.46 27.92 161.3 27.76C161.14 27.6 161.06 27.41 161.06 27.19V7.81C161.06 7.59 161.14 7.4 161.3 7.24C161.46 7.08 161.65 7 161.87 7H173.54C175.34 7 176.91 7.29 178.25 7.87C179.61 8.45 180.65 9.29 181.37 10.39C182.09 11.49 182.45 12.78 182.45 14.26C182.45 16.98 181.4 18.95 179.3 20.17L182.99 27.07ZM172.91 15.76C173.35 15.76 173.69 15.62 173.93 15.34C174.17 15.04 174.29 14.67 174.29 14.23C174.29 13.79 174.17 13.41 173.93 13.09C173.71 12.75 173.37 12.58 172.91 12.58H169.16V15.76H172.91ZM199.118 14.62C201.318 14.86 203.078 15.25 204.398 15.79C205.738 16.33 206.708 17.04 207.308 17.92C207.908 18.8 208.208 19.9 208.208 21.22C208.208 22.66 207.738 23.92 206.798 25C205.878 26.06 204.598 26.88 202.958 27.46C201.318 28.02 199.448 28.3 197.348 28.3C195.008 28.3 193.028 28.01 191.408 27.43C189.788 26.85 188.578 26.08 187.778 25.12C186.978 24.14 186.578 23.07 186.578 21.91C186.578 21.71 186.638 21.55 186.758 21.43C186.898 21.31 187.068 21.25 187.268 21.25H193.418C193.838 21.25 194.178 21.38 194.438 21.64C194.778 21.96 195.158 22.18 195.578 22.3C195.998 22.4 196.588 22.45 197.348 22.45C199.248 22.45 200.198 22.16 200.198 21.58C200.198 21.34 200.068 21.14 199.808 20.98C199.568 20.8 199.128 20.65 198.488 20.53C197.868 20.39 196.948 20.25 195.728 20.11C192.988 19.79 190.888 19.11 189.428 18.07C187.968 17.01 187.238 15.52 187.238 13.6C187.238 12.24 187.648 11.04 188.468 10C189.288 8.96 190.448 8.15 191.948 7.57C193.468 6.99 195.228 6.7 197.228 6.7C199.308 6.7 201.128 7.03 202.688 7.69C204.248 8.33 205.438 9.13 206.258 10.09C207.078 11.05 207.488 11.99 207.488 12.91C207.488 13.11 207.418 13.27 207.278 13.39C207.158 13.51 206.988 13.57 206.768 13.57H200.318C199.978 13.57 199.668 13.45 199.388 13.21C199.168 13.01 198.908 12.85 198.608 12.73C198.308 12.61 197.848 12.55 197.228 12.55C195.888 12.55 195.218 12.83 195.218 13.39C195.218 13.69 195.478 13.93 195.998 14.11C196.518 14.27 197.558 14.44 199.118 14.62Z" fill="white"/>
<path d="M149.68 35.81C149.98 35.27 150.41 35 150.97 35H156.46C156.68 35 156.87 35.08 157.03 35.24C157.19 35.4 157.27 35.59 157.27 35.81V55.19C157.27 55.41 157.19 55.6 157.03 55.76C156.87 55.92 156.68 56 156.46 56H151.03C150.81 56 150.62 55.92 150.46 55.76C150.3 55.6 150.22 55.41 150.22 55.19V45.89L148.03 50.21C147.97 50.35 147.83 50.51 147.61 50.69C147.39 50.87 147.11 50.96 146.77 50.96H144.73C144.39 50.96 144.11 50.87 143.89 50.69C143.67 50.51 143.53 50.35 143.47 50.21L141.28 45.89V55.19C141.28 55.41 141.2 55.6 141.04 55.76C140.88 55.92 140.69 56 140.47 56H135.04C134.82 56 134.63 55.92 134.47 55.76C134.31 55.6 134.23 55.41 134.23 55.19V35.81C134.23 35.59 134.31 35.4 134.47 35.24C134.63 35.08 134.82 35 135.04 35H140.53C141.09 35 141.52 35.27 141.82 35.81L145.75 43.01L149.68 35.81ZM167.818 54.98C167.558 55.66 167.108 56 166.468 56H160.798C160.618 56 160.458 55.94 160.318 55.82C160.198 55.68 160.138 55.52 160.138 55.34L160.168 55.16L166.708 35.99C166.788 35.73 166.938 35.5 167.158 35.3C167.378 35.1 167.678 35 168.058 35H176.398C176.778 35 177.078 35.1 177.298 35.3C177.518 35.5 177.668 35.73 177.748 35.99L184.288 55.16L184.318 55.34C184.318 55.52 184.248 55.68 184.108 55.82C183.988 55.94 183.838 56 183.658 56H177.988C177.348 56 176.898 55.66 176.638 54.98L175.888 52.88H168.568L167.818 54.98ZM172.228 40.79L170.098 47.03H174.358L172.228 40.79ZM201.587 35C203.467 35 205.107 35.32 206.507 35.96C207.907 36.6 208.977 37.47 209.717 38.57C210.457 39.67 210.827 40.9 210.827 42.26C210.827 44.5 210.127 46.26 208.727 47.54C207.327 48.8 204.947 49.43 201.587 49.43H197.627V55.19C197.627 55.41 197.547 55.6 197.387 55.76C197.227 55.92 197.037 56 196.817 56H190.367C190.147 56 189.957 55.92 189.797 55.76C189.637 55.6 189.557 55.41 189.557 55.19V35.81C189.557 35.59 189.637 35.4 189.797 35.24C189.957 35.08 190.147 35 190.367 35H201.587ZM201.467 43.88C201.947 43.88 202.327 43.74 202.607 43.46C202.887 43.16 203.027 42.77 203.027 42.29C203.027 41.79 202.887 41.38 202.607 41.06C202.327 40.74 201.947 40.58 201.467 40.58H197.657V43.88H201.467ZM226.565 42.62C228.765 42.86 230.525 43.25 231.845 43.79C233.185 44.33 234.155 45.04 234.755 45.92C235.355 46.8 235.655 47.9 235.655 49.22C235.655 50.66 235.185 51.92 234.245 53C233.325 54.06 232.045 54.88 230.405 55.46C228.765 56.02 226.895 56.3 224.795 56.3C222.455 56.3 220.475 56.01 218.855 55.43C217.235 54.85 216.025 54.08 215.225 53.12C214.425 52.14 214.025 51.07 214.025 49.91C214.025 49.71 214.085 49.55 214.205 49.43C214.345 49.31 214.515 49.25 214.715 49.25H220.865C221.285 49.25 221.625 49.38 221.885 49.64C222.225 49.96 222.605 50.18 223.025 50.3C223.445 50.4 224.035 50.45 224.795 50.45C226.695 50.45 227.645 50.16 227.645 49.58C227.645 49.34 227.515 49.14 227.255 48.98C227.015 48.8 226.575 48.65 225.935 48.53C225.315 48.39 224.395 48.25 223.175 48.11C220.435 47.79 218.335 47.11 216.875 46.07C215.415 45.01 214.685 43.52 214.685 41.6C214.685 40.24 215.095 39.04 215.915 38C216.735 36.96 217.895 36.15 219.395 35.57C220.915 34.99 222.675 34.7 224.675 34.7C226.755 34.7 228.575 35.03 230.135 35.69C231.695 36.33 232.885 37.13 233.705 38.09C234.525 39.05 234.935 39.99 234.935 40.91C234.935 41.11 234.865 41.27 234.725 41.39C234.605 41.51 234.435 41.57 234.215 41.57H227.765C227.425 41.57 227.115 41.45 226.835 41.21C226.615 41.01 226.355 40.85 226.055 40.73C225.755 40.61 225.295 40.55 224.675 40.55C223.335 40.55 222.665 40.83 222.665 41.39C222.665 41.69 222.925 41.93 223.445 42.11C223.965 42.27 225.005 42.44 226.565 42.62Z" fill="white"/>
</svg>
